<?xml version="1.0" standalone="no"?>
<!DOCTYPE svg PUBLIC "-//W3C//DTD SVG 20010904//EN"
 "http://www.w3.org/TR/2001/REC-SVG-20010904/DTD/svg10.dtd">
<svg version="1.0" xmlns="http://www.w3.org/2000/svg"
 width="1042.000000pt" height="1042.000000pt" viewBox="0 0 1042.000000 1042.000000"
 preserveAspectRatio="xMidYMid meet">

<g transform="translate(0.000000,1042.000000) scale(0.100000,-0.100000)"
fill="#000000" stroke="none">
<path d="M0 5215 l0 -5205 5210 0 5210 0 0 5205 0 5205 -5210 0 -5210 0 0
-5205z m6870 1662 c899 -796 1636 -1451 1638 -1456 2 -7 -323 -383 -336 -388
-4 -2 -670 584 -1481 1302 -810 718 -1477 1304 -1481 1303 -4 -2 -668 -588
-1475 -1303 -807 -715 -1471 -1301 -1475 -1303 -6 -2 -343 373 -347 387 -1 3
737 659 1640 1458 1133 1002 1647 1451 1661 1450 12 -1 713 -614 1656 -1450z
m-3141 881 c-1 -84 -4 -197 -8 -250 l-6 -98 -345 -311 c-190 -171 -375 -338
-412 -371 l-68 -60 0 621 0 621 420 0 420 0 -1 -152z m2679 -1606 l1122 -994
0 -1493 0 -1493 -26 -32 c-54 -63 -12 -60 -823 -60 l-741 0 -2 674 -3 675 -30
31 c-16 16 -46 35 -67 41 -24 6 -256 9 -650 7 l-613 -3 -34 -24 c-63 -45 -61
-25 -61 -746 l0 -655 -749 2 c-740 3 -750 3 -778 24 -15 11 -36 36 -45 55 -17
32 -18 124 -18 1514 l1 1480 226 200 c125 110 647 572 1161 1027 l935 828 36
-32 c20 -17 541 -479 1159 -1026z"/>
</g>
</svg>
